{
	"asset":{
		"version":"2.0",
		"generator":""
	},
	"scenes":[{
		"nodes":[0]
	}],
	"accessors":[{
		"bufferView":0,
		"type":"SCALAR",
		"componentType":5123,
		"count":45,
		"byteOffset":0,
		"min":[0],
		"max":[44]
	},
	{
		"bufferView":1,
		"type":"VEC3",
		"componentType":5126,
		"count":45,
		"byteOffset":0,
		"min":[-0.5366800427436829,
		-5.99999978589949e-8,
		-0.9596479535102844],
		"max":[0.4828910231590271,
		3.199999980552093e-7,
		0.1955469846725464]
	},
	{
		"bufferView":1,
		"type":"VEC3",
		"componentType":5126,
		"count":45,
		"byteOffset":12,
		"min":[0.0,
		-1.0,
		0.0],
		"max":[0.0,
		1.0,
		0.0]
	},
	{
		"bufferView":1,
		"type":"VEC2",
		"componentType":5126,
		"count":45,
		"byteOffset":24,
		"min":[-8.40429973602295,
		-7.404299736022949],
		"max":[9.40429973602295,
		10.404298782348633]
	},
	{
		"bufferView":2,
		"type":"SCALAR",
		"componentType":5123,
		"count":48,
		"byteOffset":0,
		"min":[0],
		"max":[47]
	},
	{
		"bufferView":3,
		"type":"VEC3",
		"componentType":5126,
		"count":48,
		"byteOffset":0,
		"min":[-0.23910200595855714,
		0.06152347847819328,
		-0.5644919872283936],
		"max":[-0.045898400247097018,
		0.11250019073486328,
		-0.23609395325183869]
	},
	{
		"bufferView":3,
		"type":"VEC3",
		"componentType":5126,
		"count":48,
		"byteOffset":12,
		"min":[0.17659924924373628,
		-0.17798802256584168,
		0.08612768352031708],
		"max":[0.8847249150276184,
		0.9805017113685608,
		0.43189048767089846]
	},
	{
		"bufferView":3,
		"type":"VEC2",
		"componentType":5126,
		"count":48,
		"byteOffset":24,
		"min":[0.0,
		1.0],
		"max":[1.0,
		2.0]
	},
	{
		"bufferView":4,
		"type":"SCALAR",
		"componentType":5123,
		"count":186,
		"byteOffset":0,
		"min":[0],
		"max":[185]
	},
	{
		"bufferView":5,
		"type":"VEC3",
		"componentType":5126,
		"count":186,
		"byteOffset":0,
		"min":[0.08117189258337021,
		0.04023459926247597,
		-0.7566019296646118],
		"max":[0.4403519928455353,
		0.1460162252187729,
		-0.5335549712181091]
	},
	{
		"bufferView":5,
		"type":"VEC3",
		"componentType":5126,
		"count":186,
		"byteOffset":12,
		"min":[-0.6579152345657349,
		0.5888802409172058,
		0.2981715202331543],
		"max":[0.4008997678756714,
		0.8631151914596558,
		0.7425633668899536]
	},
	{
		"bufferView":5,
		"type":"VEC2",
		"componentType":5126,
		"count":186,
		"byteOffset":24,
		"min":[0.0,
		1.0],
		"max":[1.0,
		2.0]
	},
	{
		"bufferView":6,
		"type":"SCALAR",
		"componentType":5123,
		"count":228,
		"byteOffset":0,
		"min":[0],
		"max":[227]
	},
	{
		"bufferView":7,
		"type":"VEC3",
		"componentType":5126,
		"count":228,
		"byteOffset":0,
		"min":[-0.18160200119018556,
		7.999999951380232e-8,
		-0.528827965259552],
		"max":[0.0007031200220808387,
		0.08542986959218979,
		-0.21867194771766663]
	},
	{
		"bufferView":7,
		"type":"VEC3",
		"componentType":5126,
		"count":228,
		"byteOffset":12,
		"min":[-0.8990229964256287,
		-0.10081714391708374,
		-0.4386933147907257],
		"max":[0.9031631946563721,
		0.99985271692276,
		0.9936230182647705]
	},
	{
		"bufferView":7,
		"type":"VEC2",
		"componentType":5126,
		"count":228,
		"byteOffset":24,
		"min":[-0.0019529999699443579,
		1.0],
		"max":[1.0,
		2.0]
	},
	{
		"bufferView":8,
		"type":"SCALAR",
		"componentType":5123,
		"count":48,
		"byteOffset":0,
		"min":[0],
		"max":[47]
	},
	{
		"bufferView":9,
		"type":"VEC3",
		"componentType":5126,
		"count":48,
		"byteOffset":0,
		"min":[0.07683590054512024,
		1.8000000068241207e-7,
		-0.7431640028953552],
		"max":[0.4275779724121094,
		0.07179713994264603,
		-0.551444947719574]
	},
	{
		"bufferView":9,
		"type":"VEC3",
		"componentType":5126,
		"count":48,
		"byteOffset":12,
		"min":[-0.3370015025138855,
		0.0,
		-0.2111324965953827],
		"max":[0.2187548279762268,
		1.0,
		0.9415735006332398]
	},
	{
		"bufferView":9,
		"type":"VEC2",
		"componentType":5126,
		"count":48,
		"byteOffset":24,
		"min":[-7.910160064697266,
		1.0214838981628419],
		"max":[3.1601600646972658,
		1.8671879768371583]
	},
	{
		"bufferView":10,
		"type":"SCALAR",
		"componentType":5123,
		"count":144,
		"byteOffset":0,
		"min":[0],
		"max":[143]
	},
	{
		"bufferView":11,
		"type":"VEC3",
		"componentType":5126,
		"count":144,
		"byteOffset":0,
		"min":[-0.27300798892974856,
		7.999999951380232e-8,
		-0.581015944480896],
		"max":[-0.045898400247097018,
		0.11250019073486328,
		-0.23609395325183869]
	},
	{
		"bufferView":11,
		"type":"VEC3",
		"componentType":5126,
		"count":144,
		"byteOffset":12,
		"min":[-0.442607581615448,
		-0.0026875699404627086,
		0.0],
		"max":[0.8988760113716126,
		1.0,
		0.9001948833465576]
	},
	{
		"bufferView":11,
		"type":"VEC2",
		"componentType":5126,
		"count":144,
		"byteOffset":24,
		"min":[0.011718999594449997,
		1.0146479606628419],
		"max":[1.0,
		2.0]
	},
	{
		"bufferView":12,
		"type":"SCALAR",
		"componentType":5123,
		"count":24,
		"byteOffset":0,
		"min":[0],
		"max":[23]
	},
	{
		"bufferView":13,
		"type":"VEC3",
		"componentType":5126,
		"count":24,
		"byteOffset":0,
		"min":[-0.31214800477027895,
		1.199999957179898e-7,
		-0.9596479535102844],
		"max":[0.568867027759552,
		0.449219286441803,
		-0.39617183804512026]
	},
	{
		"bufferView":13,
		"type":"VEC3",
		"componentType":5126,
		"count":24,
		"byteOffset":12,
		"min":[-0.18523190915584565,
		0.0,
		0.46650874614715578],
		"max":[0.8845165967941284,
		0.0,
		0.9826948046684265]
	},
	{
		"bufferView":13,
		"type":"VEC2",
		"componentType":5126,
		"count":24,
		"byteOffset":24,
		"min":[-0.5712890028953552,
		0.32226598262786868],
		"max":[2.257810115814209,
		2.6240200996398927]
	},
	{
		"bufferView":14,
		"type":"SCALAR",
		"componentType":5123,
		"count":48,
		"byteOffset":0,
		"min":[0],
		"max":[47]
	},
	{
		"bufferView":15,
		"type":"VEC3",
		"componentType":5126,
		"count":48,
		"byteOffset":0,
		"min":[-0.2775779962539673,
		0.13921913504600526,
		-0.509804904460907],
		"max":[-0.17679698765277863,
		0.21820314228534699,
		-0.3689059019088745]
	},
	{
		"bufferView":15,
		"type":"VEC3",
		"componentType":5126,
		"count":48,
		"byteOffset":12,
		"min":[-0.42550361156463625,
		-1.0,
		-0.3053835928440094],
		"max":[0.8781951665878296,
		1.0,
		0.7799888253211975]
	},
	{
		"bufferView":15,
		"type":"VEC2",
		"componentType":5126,
		"count":48,
		"byteOffset":24,
		"min":[0.03125,
		1.066406011581421],
		"max":[0.9707030057907105,
		1.919921875]
	},
	{
		"bufferView":16,
		"type":"SCALAR",
		"componentType":5123,
		"count":420,
		"byteOffset":0,
		"min":[0],
		"max":[419]
	},
	{
		"bufferView":17,
		"type":"VEC3",
		"componentType":5126,
		"count":420,
		"byteOffset":0,
		"min":[-0.15710899233818055,
		0.18031208217144013,
		-0.7160939574241638],
		"max":[0.2926560044288635,
		0.2958202064037323,
		-0.26820293068885805]
	},
	{
		"bufferView":17,
		"type":"VEC3",
		"componentType":5126,
		"count":420,
		"byteOffset":12,
		"min":[-0.9855409264564514,
		-0.10809742659330368,
		-0.9897043704986572],
		"max":[0.9891804456710815,
		0.9118378758430481,
		0.9927624464035034]
	},
	{
		"bufferView":17,
		"type":"VEC2",
		"componentType":5126,
		"count":420,
		"byteOffset":24,
		"min":[-9.921879768371582,
		-8.0],
		"max":[10.019499778747559,
		4.449219703674316]
	},
	{
		"bufferView":18,
		"type":"SCALAR",
		"componentType":5123,
		"count":156,
		"byteOffset":0,
		"min":[0],
		"max":[155]
	},
	{
		"bufferView":19,
		"type":"VEC3",
		"componentType":5126,
		"count":156,
		"byteOffset":0,
		"min":[-0.12820300459861756,
		5.99999978589949e-8,
		-0.4639839828014374],
		"max":[0.38324201107025149,
		0.06878925114870072,
		0.2136330008506775]
	},
	{
		"bufferView":19,
		"type":"VEC3",
		"componentType":5126,
		"count":156,
		"byteOffset":12,
		"min":[-0.9981221556663513,
		0.0,
		-0.4273054003715515],
		"max":[0.9165750741958618,
		1.0,
		0.9455376863479614]
	},
	{
		"bufferView":19,
		"type":"VEC2",
		"componentType":5126,
		"count":156,
		"byteOffset":24,
		"min":[0.0,
		1.046875],
		"max":[2.0,
		2.0]
	}],
	"nodes":[{
		"name":"Casino",
		"children":[1,
		2,
		3,
		4,
		5,
		6,
		7,
		8,
		9,
		10]
	},
	{
		"name":"Casino-_material1.001",
		"mesh":0
	},
	{
		"name":"Casino-_material5.001",
		"mesh":1
	},
	{
		"name":"Casino-_material3.001",
		"mesh":2
	},
	{
		"name":"Casino-_material7.001",
		"mesh":3
	},
	{
		"name":"Casino-_material2.001",
		"mesh":4
	},
	{
		"name":"Casino-_material6.001",
		"mesh":5
	},
	{
		"name":"Casino-_material9.001",
		"mesh":6
	},
	{
		"name":"Casino-_material0.001",
		"mesh":7
	},
	{
		"name":"Casino-_material4.001",
		"mesh":8
	},
	{
		"name":"Casino-_material8.001",
		"mesh":9
	}],
	"meshes":[{
		"name":"Casino-_material1.001",
		"primitives":[{
			"attributes":{
				"POSITION":1,
				"NORMAL":2,
				"TEXCOORD_0":3
			},
			"indices":0,
			"material":0
		}]
	},
	{
		"name":"Casino-_material5.001",
		"primitives":[{
			"attributes":{
				"POSITION":5,
				"NORMAL":6,
				"TEXCOORD_0":7
			},
			"indices":4,
			"material":1
		}]
	},
	{
		"name":"Casino-_material3.001",
		"primitives":[{
			"attributes":{
				"POSITION":9,
				"NORMAL":10,
				"TEXCOORD_0":11
			},
			"indices":8,
			"material":2
		}]
	},
	{
		"name":"Casino-_material7.001",
		"primitives":[{
			"attributes":{
				"POSITION":13,
				"NORMAL":14,
				"TEXCOORD_0":15
			},
			"indices":12,
			"material":3
		}]
	},
	{
		"name":"Casino-_material2.001",
		"primitives":[{
			"attributes":{
				"POSITION":17,
				"NORMAL":18,
				"TEXCOORD_0":19
			},
			"indices":16,
			"material":4
		}]
	},
	{
		"name":"Casino-_material6.001",
		"primitives":[{
			"attributes":{
				"POSITION":21,
				"NORMAL":22,
				"TEXCOORD_0":23
			},
			"indices":20,
			"material":5
		}]
	},
	{
		"name":"Casino-_material9.001",
		"primitives":[{
			"attributes":{
				"POSITION":25,
				"NORMAL":26,
				"TEXCOORD_0":27
			},
			"indices":24,
			"material":6
		}]
	},
	{
		"name":"Casino-_material0.001",
		"primitives":[{
			"attributes":{
				"POSITION":29,
				"NORMAL":30,
				"TEXCOORD_0":31
			},
			"indices":28,
			"material":7
		}]
	},
	{
		"name":"Casino-_material4.001",
		"primitives":[{
			"attributes":{
				"POSITION":33,
				"NORMAL":34,
				"TEXCOORD_0":35
			},
			"indices":32,
			"material":8
		}]
	},
	{
		"name":"Casino-_material8.001",
		"primitives":[{
			"attributes":{
				"POSITION":37,
				"NORMAL":38,
				"TEXCOORD_0":39
			},
			"indices":36,
			"material":9
		}]
	}],
	"bufferViews":[{
		"target":34963,
		"buffer":0,
		"byteOffset":0,
		"byteLength":90
	},
	{
		"target":34962,
		"buffer":0,
		"byteOffset":92,
		"byteLength":1440,
		"byteStride":32
	},
	{
		"target":34963,
		"buffer":1,
		"byteOffset":0,
		"byteLength":96
	},
	{
		"target":34962,
		"buffer":1,
		"byteOffset":96,
		"byteLength":1536,
		"byteStride":32
	},
	{
		"target":34963,
		"buffer":2,
		"byteOffset":0,
		"byteLength":372
	},
	{
		"target":34962,
		"buffer":2,
		"byteOffset":372,
		"byteLength":5952,
		"byteStride":32
	},
	{
		"target":34963,
		"buffer":3,
		"byteOffset":0,
		"byteLength":456
	},
	{
		"target":34962,
		"buffer":3,
		"byteOffset":456,
		"byteLength":7296,
		"byteStride":32
	},
	{
		"target":34963,
		"buffer":4,
		"byteOffset":0,
		"byteLength":96
	},
	{
		"target":34962,
		"buffer":4,
		"byteOffset":96,
		"byteLength":1536,
		"byteStride":32
	},
	{
		"target":34963,
		"buffer":5,
		"byteOffset":0,
		"byteLength":288
	},
	{
		"target":34962,
		"buffer":5,
		"byteOffset":288,
		"byteLength":4608,
		"byteStride":32
	},
	{
		"target":34963,
		"buffer":6,
		"byteOffset":0,
		"byteLength":48
	},
	{
		"target":34962,
		"buffer":6,
		"byteOffset":48,
		"byteLength":768,
		"byteStride":32
	},
	{
		"target":34963,
		"buffer":7,
		"byteOffset":0,
		"byteLength":96
	},
	{
		"target":34962,
		"buffer":7,
		"byteOffset":96,
		"byteLength":1536,
		"byteStride":32
	},
	{
		"target":34963,
		"buffer":8,
		"byteOffset":0,
		"byteLength":840
	},
	{
		"target":34962,
		"buffer":8,
		"byteOffset":840,
		"byteLength":13440,
		"byteStride":32
	},
	{
		"target":34963,
		"buffer":9,
		"byteOffset":0,
		"byteLength":312
	},
	{
		"target":34962,
		"buffer":9,
		"byteOffset":312,
		"byteLength":4992,
		"byteStride":32
	}],
	"buffers":[{
		"uri":"data:application/octet-stream;base64,",
		"byteLength":1532
	},
	{
		"uri":"data:application/octet-stream;base64,",
		"byteLength":1632
	},
	{
		"uri":"data:application/octet-stream;base64,",
		"byteLength":6324
	},
	{
		"uri":"data:application/octet-stream;base64,",
		"byteLength":7752
	},
	{
		"uri":"data:application/octet-stream;base64,",
		"byteLength":1632
	},
	{
		"uri":"data:application/octet-stream;base64,",
		"byteLength":4896
	},
	{
		"uri":"data:application/octet-stream;base64,",
		"byteLength":816
	},
	{
		"uri":"data:application/octet-stream;base64,",
		"byteLength":1632
	},
	{
		"uri":"data:application/octet-stream;base64,",
		"byteLength":14280
	},
	{
		"uri":"data:application/octet-stream;base64,",
		"byteLength":5304
	}],
	"images":[{
		"uri":"data:image/png;base64,"
	},
	{
		"uri":"data:image/png;base64,"
	},
	{
		"uri":"data:image/png;base64,"
	},
	{
		"uri":"data:image/png;base64,"
	},
	{
		"uri":"data:image/png;base64,"
	},
	{
		"uri":"data:image/png;base64,"
	},
	{
		"uri":"data:image/png;base64,"
	},
	{
		"uri":"data:image/png;base64,"
	},
	{
		"uri":"data:image/png;base64,"
	},
	{
		"uri":"data:image/png;base64,"
	}],
	"samplers":[{
		"magFilter":9729,
		"minFilter":9729,
		"wrapS":10497,
		"wrapT":10497
	},
	{
		"magFilter":9729,
		"minFilter":9729,
		"wrapS":10497,
		"wrapT":10497
	},
	{
		"magFilter":9729,
		"minFilter":9729,
		"wrapS":10497,
		"wrapT":10497
	},
	{
		"magFilter":9729,
		"minFilter":9729,
		"wrapS":10497,
		"wrapT":10497
	},
	{
		"magFilter":9729,
		"minFilter":9729,
		"wrapS":10497,
		"wrapT":10497
	},
	{
		"magFilter":9729,
		"minFilter":9729,
		"wrapS":10497,
		"wrapT":10497
	},
	{
		"magFilter":9729,
		"minFilter":9729,
		"wrapS":10497,
		"wrapT":10497
	},
	{
		"magFilter":9729,
		"minFilter":9729,
		"wrapS":10497,
		"wrapT":10497
	},
	{
		"magFilter":9729,
		"minFilter":9729,
		"wrapS":10497,
		"wrapT":10497
	},
	{
		"magFilter":9729,
		"minFilter":9729,
		"wrapS":10497,
		"wrapT":10497
	}],
	"textures":[{
		"sampler":0,
		"source":0
	},
	{
		"sampler":1,
		"source":1
	},
	{
		"sampler":2,
		"source":2
	},
	{
		"sampler":3,
		"source":3
	},
	{
		"sampler":4,
		"source":4
	},
	{
		"sampler":5,
		"source":5
	},
	{
		"sampler":6,
		"source":6
	},
	{
		"sampler":7,
		"source":7
	},
	{
		"sampler":8,
		"source":8
	},
	{
		"sampler":9,
		"source":9
	}],
	"materials":[{
		"alphaMode":"OPAQUE",
		"pbrMetallicRoughness":{
			"baseColorTexture":{
				"index":0
			},
			"baseColorFactor":[1.0,
			1.0,
			1.0,
			1.0],
			"metallicFactor":1.0,
			"roughnessFactor":1.0
		},
		"emissiveFactor":[0.0,
		0.0,
		0.0],
		"doubleSided":true,
		"name":"_material1.001"
	},
	{
		"alphaMode":"OPAQUE",
		"pbrMetallicRoughness":{
			"baseColorTexture":{
				"index":1
			},
			"baseColorFactor":[1.0,
			1.0,
			1.0,
			1.0],
			"metallicFactor":1.0,
			"roughnessFactor":1.0
		},
		"emissiveFactor":[0.0,
		0.0,
		0.0],
		"doubleSided":true,
		"name":"_material5.001"
	},
	{
		"alphaMode":"OPAQUE",
		"pbrMetallicRoughness":{
			"baseColorTexture":{
				"index":2
			},
			"baseColorFactor":[1.0,
			1.0,
			1.0,
			1.0],
			"metallicFactor":1.0,
			"roughnessFactor":1.0
		},
		"emissiveFactor":[0.0,
		0.0,
		0.0],
		"doubleSided":true,
		"name":"_material3.001"
	},
	{
		"alphaMode":"OPAQUE",
		"pbrMetallicRoughness":{
			"baseColorTexture":{
				"index":3
			},
			"baseColorFactor":[1.0,
			1.0,
			1.0,
			1.0],
			"metallicFactor":1.0,
			"roughnessFactor":1.0
		},
		"emissiveFactor":[0.0,
		0.0,
		0.0],
		"doubleSided":true,
		"name":"_material7.001"
	},
	{
		"alphaMode":"OPAQUE",
		"pbrMetallicRoughness":{
			"baseColorTexture":{
				"index":4
			},
			"baseColorFactor":[1.0,
			1.0,
			1.0,
			1.0],
			"metallicFactor":1.0,
			"roughnessFactor":1.0
		},
		"emissiveFactor":[0.0,
		0.0,
		0.0],
		"doubleSided":true,
		"name":"_material2.001"
	},
	{
		"alphaMode":"OPAQUE",
		"pbrMetallicRoughness":{
			"baseColorTexture":{
				"index":5
			},
			"baseColorFactor":[1.0,
			1.0,
			1.0,
			1.0],
			"metallicFactor":1.0,
			"roughnessFactor":1.0
		},
		"emissiveFactor":[0.0,
		0.0,
		0.0],
		"doubleSided":true,
		"name":"_material6.001"
	},
	{
		"alphaMode":"OPAQUE",
		"pbrMetallicRoughness":{
			"baseColorTexture":{
				"index":6
			},
			"baseColorFactor":[1.0,
			1.0,
			1.0,
			1.0],
			"metallicFactor":1.0,
			"roughnessFactor":1.0
		},
		"emissiveFactor":[0.0,
		0.0,
		0.0],
		"doubleSided":true,
		"name":"_material9.001"
	},
	{
		"alphaMode":"OPAQUE",
		"pbrMetallicRoughness":{
			"baseColorTexture":{
				"index":7
			},
			"baseColorFactor":[1.0,
			1.0,
			1.0,
			1.0],
			"metallicFactor":1.0,
			"roughnessFactor":1.0
		},
		"emissiveFactor":[0.0,
		0.0,
		0.0],
		"doubleSided":true,
		"name":"_material0.001"
	},
	{
		"alphaMode":"OPAQUE",
		"pbrMetallicRoughness":{
			"baseColorTexture":{
				"index":8
			},
			"baseColorFactor":[1.0,
			1.0,
			1.0,
			1.0],
			"metallicFactor":1.0,
			"roughnessFactor":1.0
		},
		"emissiveFactor":[0.0,
		0.0,
		0.0],
		"doubleSided":true,
		"name":"_material4.001"
	},
	{
		"alphaMode":"OPAQUE",
		"pbrMetallicRoughness":{
			"baseColorTexture":{
				"index":9
			},
			"baseColorFactor":[1.0,
			1.0,
			1.0,
			1.0],
			"metallicFactor":1.0,
			"roughnessFactor":1.0
		},
		"emissiveFactor":[0.0,
		0.0,
		0.0],
		"doubleSided":true,
		"name":"_material8.001"
	}]
}