{
	"asset":{
		"version":"2.0",
		"generator":""
	},
	"scenes":[{
		"nodes":[0,
		1,
		2,
		3,
		4,
		5,
		6,
		7,
		8,
		9,
		10]
	}],
	"nodes":[{
		"name":"Fake Ground",
		"translation":[0.0,
		-0.0010000000474974514,
		0.0],
		"mesh":0,
		"scale":[1.0,
		1.0,
		1.0],
		"rotation":[0.0,
		0.0,
		0.0,
		-1.0]
	},
	{
		"name":"Walls",
		"children":[11,
		12,
		13]
	},
	{
		"name":"Leaves",
		"children":[14]
	},
	{
		"name":"Chairs",
		"children":[15]
	},
	{
		"name":"Pot",
		"children":[16]
	},
	{
		"name":"MachinesScreens",
		"children":[17]
	},
	{
		"name":"Machines",
		"children":[18]
	},
	{
		"name":"SlotsSign",
		"children":[19]
	},
	{
		"name":"Chandelier",
		"children":[20]
	},
	{
		"name":"Table1",
		"children":[21,
		22]
	},
	{
		"name":"Table2",
		"translation":[1.2100000381469727,
		0.0,
		0.5099999904632568],
		"scale":[1.0,
		1.0,
		1.0],
		"rotation":[0.0,
		0.0,
		0.0,
		-1.0],
		"children":[23,
		24,
		25]
	},
	{
		"name":"CasinoWall2",
		"translation":[-2.640000104904175,
		0.0,
		-4.880000114440918],
		"mesh":1,
		"scale":[1.0,
		1.0,
		1.0],
		"rotation":[0.0,
		-0.258819043636322,
		0.0,
		0.9659258127212524]
	},
	{
		"name":"CasinoWall1",
		"translation":[3.9749999046325685,
		0.0,
		-8.145000457763672],
		"mesh":2,
		"scale":[1.0,
		1.0,
		1.0],
		"rotation":[0.0,
		-0.1736481785774231,
		0.0,
		0.9848077297210693]
	},
	{
		"name":"CasinoFloor",
		"translation":[0.0,
		0.0,
		0.0],
		"mesh":3,
		"scale":[1.0,
		1.0,
		1.0],
		"rotation":[0.0,
		-0.08715574443340302,
		0.0,
		0.9961947202682495]
	},
	{
		"name":"Leaves-_material3.001",
		"mesh":4
	},
	{
		"name":"Chairs-_material7.001",
		"mesh":5
	},
	{
		"name":"Pot-_material2.001",
		"mesh":6
	},
	{
		"name":"MachinesScreens-_material5.001",
		"mesh":7
	},
	{
		"name":"Machines-_material6.001",
		"mesh":8
	},
	{
		"name":"SlotsSign-_material0.001",
		"mesh":9
	},
	{
		"name":"Chandelier-_material4.001",
		"mesh":10
	},
	{
		"name":"Tables1Top",
		"children":[26]
	},
	{
		"name":"Tables1Edges",
		"children":[27]
	},
	{
		"name":"table2Bot",
		"translation":[0.47999998927116396,
		0.0,
		0.0],
		"scale":[1.0,
		1.0,
		1.0],
		"rotation":[0.0,
		0.0,
		0.0,
		-1.0],
		"children":[28]
	},
	{
		"name":"table2Mid",
		"translation":[0.47999998927116396,
		0.0,
		0.0],
		"scale":[1.0,
		1.0,
		1.0],
		"rotation":[0.0,
		0.0,
		0.0,
		-1.0],
		"children":[29]
	},
	{
		"name":"table2Top",
		"translation":[0.47999998927116396,
		0.0,
		0.0],
		"scale":[1.0,
		1.0,
		1.0],
		"rotation":[0.0,
		0.0,
		0.0,
		-1.0],
		"children":[30]
	},
	{
		"name":"Tables1Top-_material8.001",
		"mesh":11
	},
	{
		"name":"Tables1Edges-_material8.001",
		"mesh":12
	},
	{
		"name":"table2Bot-_material8.001",
		"mesh":13
	},
	{
		"name":"table2Mid-_material8.001",
		"mesh":14
	},
	{
		"name":"table2Top-_material8.001",
		"mesh":15
	}],
	"meshes":[{
		"name":"Fake Ground",
		"primitives":[{
			"attributes":{
				"POSITION":1,
				"NORMAL":2,
				"TEXCOORD_0":3
			},
			"indices":0,
			"material":0
		}]
	},
	{
		"name":"CasinoWall2",
		"primitives":[{
			"attributes":{
				"POSITION":5,
				"TEXCOORD_0":6
			},
			"indices":4,
			"material":1
		}]
	},
	{
		"name":"CasinoWall1",
		"primitives":[{
			"attributes":{
				"POSITION":8,
				"TEXCOORD_0":9
			},
			"indices":7,
			"material":1
		}]
	},
	{
		"name":"CasinoFloor",
		"primitives":[{
			"attributes":{
				"POSITION":11,
				"TEXCOORD_0":12
			},
			"indices":10,
			"material":2
		}]
	},
	{
		"name":"Leaves-_material3.001",
		"primitives":[{
			"attributes":{
				"POSITION":14,
				"TEXCOORD_0":15
			},
			"indices":13,
			"material":3
		}]
	},
	{
		"name":"Chairs-_material7.001",
		"primitives":[{
			"attributes":{
				"POSITION":17,
				"TEXCOORD_0":18
			},
			"indices":16,
			"material":4
		}]
	},
	{
		"name":"Pot-_material2.001",
		"primitives":[{
			"attributes":{
				"POSITION":20,
				"TEXCOORD_0":21
			},
			"indices":19,
			"material":5
		}]
	},
	{
		"name":"MachinesScreens-_material5.001",
		"primitives":[{
			"attributes":{
				"POSITION":23,
				"TEXCOORD_0":24
			},
			"indices":22,
			"material":6
		}]
	},
	{
		"name":"Machines-_material6.001",
		"primitives":[{
			"attributes":{
				"POSITION":26,
				"TEXCOORD_0":27
			},
			"indices":25,
			"material":7
		}]
	},
	{
		"name":"SlotsSign-_material0.001",
		"primitives":[{
			"attributes":{
				"POSITION":29,
				"TEXCOORD_0":30
			},
			"indices":28,
			"material":8
		}]
	},
	{
		"name":"Chandelier-_material4.001",
		"primitives":[{
			"attributes":{
				"POSITION":32,
				"TEXCOORD_0":33
			},
			"indices":31,
			"material":9
		}]
	},
	{
		"name":"Tables1Top-_material8.001",
		"primitives":[{
			"attributes":{
				"POSITION":35,
				"TEXCOORD_0":36
			},
			"indices":34,
			"material":10
		}]
	},
	{
		"name":"Tables1Edges-_material8.001",
		"primitives":[{
			"attributes":{
				"POSITION":38,
				"TEXCOORD_0":39
			},
			"indices":37,
			"material":10
		}]
	},
	{
		"name":"table2Bot-_material8.001",
		"primitives":[{
			"attributes":{
				"POSITION":41,
				"TEXCOORD_0":42
			},
			"indices":40,
			"material":10
		}]
	},
	{
		"name":"table2Mid-_material8.001",
		"primitives":[{
			"attributes":{
				"POSITION":44,
				"TEXCOORD_0":45
			},
			"indices":43,
			"material":10
		}]
	},
	{
		"name":"table2Top-_material8.001",
		"primitives":[{
			"attributes":{
				"POSITION":47,
				"TEXCOORD_0":48
			},
			"indices":46,
			"material":10
		}]
	}],
	"accessors":[{
		"bufferView":0,
		"type":"SCALAR",
		"componentType":5123,
		"count":6,
		"max":[3],
		"byteOffset":0,
		"min":[0]
	},
	{
		"bufferView":1,
		"type":"VEC3",
		"componentType":5126,
		"count":4,
		"max":[20.0,
		0.0,
		20.0],
		"byteOffset":0,
		"min":[-20.0,
		0.0,
		-20.0]
	},
	{
		"bufferView":1,
		"type":"VEC3",
		"componentType":5126,
		"count":4,
		"max":[0.0,
		1.0,
		0.0],
		"byteOffset":12,
		"min":[0.0,
		1.0,
		0.0]
	},
	{
		"bufferView":1,
		"type":"VEC2",
		"componentType":5126,
		"count":4,
		"max":[1.0,
		1.0],
		"byteOffset":24,
		"min":[0.0,
		0.0]
	},
	{
		"bufferView":2,
		"type":"SCALAR",
		"componentType":5123,
		"count":6,
		"max":[3],
		"byteOffset":0,
		"min":[0]
	},
	{
		"bufferView":3,
		"type":"VEC3",
		"componentType":5126,
		"count":4,
		"max":[0.0,
		10.0,
		10.0],
		"byteOffset":0,
		"min":[0.0,
		-10.0,
		-10.0]
	},
	{
		"bufferView":3,
		"type":"VEC2",
		"componentType":5126,
		"count":4,
		"max":[10.0,
		10.0],
		"byteOffset":12,
		"min":[0.0,
		0.0]
	},
	{
		"bufferView":4,
		"type":"SCALAR",
		"componentType":5123,
		"count":6,
		"max":[3],
		"byteOffset":0,
		"min":[0]
	},
	{
		"bufferView":5,
		"type":"VEC3",
		"componentType":5126,
		"count":4,
		"max":[10.0,
		10.0,
		0.0],
		"byteOffset":0,
		"min":[-10.0,
		-10.0,
		0.0]
	},
	{
		"bufferView":5,
		"type":"VEC2",
		"componentType":5126,
		"count":4,
		"max":[10.0,
		10.0],
		"byteOffset":12,
		"min":[0.0,
		0.0]
	},
	{
		"bufferView":6,
		"type":"SCALAR",
		"componentType":5123,
		"count":6,
		"max":[3],
		"byteOffset":0,
		"min":[0]
	},
	{
		"bufferView":7,
		"type":"VEC3",
		"componentType":5126,
		"count":4,
		"max":[10.0,
		0.0,
		10.0],
		"byteOffset":0,
		"min":[-10.0,
		0.0,
		-10.0]
	},
	{
		"bufferView":7,
		"type":"VEC2",
		"componentType":5126,
		"count":4,
		"max":[10.0,
		10.0],
		"byteOffset":12,
		"min":[0.0,
		0.0]
	},
	{
		"bufferView":8,
		"type":"SCALAR",
		"componentType":5123,
		"count":186,
		"max":[123],
		"byteOffset":0,
		"min":[0]
	},
	{
		"bufferView":9,
		"type":"VEC3",
		"componentType":5126,
		"count":124,
		"max":[4.403519630432129,
		1.4601622819900513,
		-5.335549831390381],
		"byteOffset":0,
		"min":[0.8117188811302185,
		0.4023459851741791,
		-7.566019535064697]
	},
	{
		"bufferView":9,
		"type":"VEC2",
		"componentType":5126,
		"count":124,
		"max":[0.9999058842658997,
		0.9997279644012451],
		"byteOffset":12,
		"min":[-0.00009407929610460997,
		-0.00027208798564970493]
	},
	{
		"bufferView":10,
		"type":"SCALAR",
		"componentType":5123,
		"count":228,
		"max":[119],
		"byteOffset":0,
		"min":[0]
	},
	{
		"bufferView":11,
		"type":"VEC3",
		"componentType":5126,
		"count":120,
		"max":[0.007031199987977743,
		0.8542987108230591,
		-2.1867194175720217],
		"byteOffset":0,
		"min":[-1.8160200119018555,
		8.000000093488779e-7,
		-5.2882795333862309]
	},
	{
		"bufferView":11,
		"type":"VEC2",
		"componentType":5126,
		"count":120,
		"max":[1.0,
		2.0],
		"byteOffset":12,
		"min":[-0.0019529999699443579,
		1.0]
	},
	{
		"bufferView":12,
		"type":"SCALAR",
		"componentType":5123,
		"count":48,
		"max":[23],
		"byteOffset":0,
		"min":[0]
	},
	{
		"bufferView":13,
		"type":"VEC3",
		"componentType":5126,
		"count":24,
		"max":[4.275779724121094,
		0.7179713845252991,
		-5.514449596405029],
		"byteOffset":0,
		"min":[0.7683590054512024,
		0.0000017999999499807018,
		-7.431639671325684]
	},
	{
		"bufferView":13,
		"type":"VEC2",
		"componentType":5126,
		"count":24,
		"max":[3.190160036087036,
		0.8917050361633301],
		"byteOffset":12,
		"min":[-7.880159854888916,
		0.04600096493959427]
	},
	{
		"bufferView":14,
		"type":"SCALAR",
		"componentType":5123,
		"count":48,
		"max":[31],
		"byteOffset":0,
		"min":[0]
	},
	{
		"bufferView":15,
		"type":"VEC3",
		"componentType":5126,
		"count":32,
		"max":[-0.45898398756980898,
		1.1250019073486329,
		-2.3609395027160646],
		"byteOffset":0,
		"min":[-2.3910200595855715,
		0.6152347922325134,
		-5.6449198722839359]
	},
	{
		"bufferView":15,
		"type":"VEC2",
		"componentType":5126,
		"count":32,
		"max":[1.0,
		1.0],
		"byteOffset":12,
		"min":[0.0,
		-4.470348535789981e-10]
	},
	{
		"bufferView":16,
		"type":"SCALAR",
		"componentType":5123,
		"count":144,
		"max":[79],
		"byteOffset":0,
		"min":[0]
	},
	{
		"bufferView":17,
		"type":"VEC3",
		"componentType":5126,
		"count":80,
		"max":[-0.45898398756980898,
		1.1250019073486329,
		-2.3609395027160646],
		"byteOffset":0,
		"min":[-2.7300798892974855,
		8.000000093488779e-7,
		-5.810159683227539]
	},
	{
		"bufferView":17,
		"type":"VEC2",
		"componentType":5126,
		"count":80,
		"max":[1.0,
		1.0],
		"byteOffset":12,
		"min":[0.0,
		0.0]
	},
	{
		"bufferView":18,
		"type":"SCALAR",
		"componentType":5123,
		"count":48,
		"max":[19],
		"byteOffset":0,
		"min":[0]
	},
	{
		"bufferView":19,
		"type":"VEC3",
		"componentType":5126,
		"count":20,
		"max":[-1.7842090129852296,
		2.1816413402557375,
		-3.694979667663574],
		"byteOffset":0,
		"min":[-2.713275194168091,
		1.3925811052322388,
		-5.079750061035156]
	},
	{
		"bufferView":19,
		"type":"VEC2",
		"componentType":5126,
		"count":20,
		"max":[1.0,
		1.0],
		"byteOffset":12,
		"min":[0.0,
		0.0]
	},
	{
		"bufferView":20,
		"type":"SCALAR",
		"componentType":5123,
		"count":420,
		"max":[251],
		"byteOffset":0,
		"min":[0]
	},
	{
		"bufferView":21,
		"type":"VEC3",
		"componentType":5126,
		"count":252,
		"max":[2.9265599250793459,
		2.9582018852233888,
		-2.6820292472839357],
		"byteOffset":0,
		"min":[-1.5710898637771607,
		1.8031208515167237,
		-7.160939693450928]
	},
	{
		"bufferView":21,
		"type":"VEC2",
		"componentType":5126,
		"count":252,
		"max":[10.019499778747559,
		4.449219703674316],
		"byteOffset":12,
		"min":[-9.921879768371582,
		-8.0]
	},
	{
		"bufferView":22,
		"type":"SCALAR",
		"componentType":5123,
		"count":30,
		"max":[15],
		"byteOffset":0,
		"min":[0]
	},
	{
		"bufferView":23,
		"type":"VEC3",
		"componentType":5126,
		"count":16,
		"max":[1.2820299863815308,
		0.687890887260437,
		2.1363298892974855],
		"byteOffset":0,
		"min":[-1.2820299863815308,
		0.5160154104232788,
		0.24062520265579225]
	},
	{
		"bufferView":23,
		"type":"VEC2",
		"componentType":5126,
		"count":16,
		"max":[1.0,
		1.488281011581421],
		"byteOffset":12,
		"min":[0.0,
		1.046875]
	},
	{
		"bufferView":24,
		"type":"SCALAR",
		"componentType":5123,
		"count":24,
		"max":[11],
		"byteOffset":0,
		"min":[0]
	},
	{
		"bufferView":25,
		"type":"VEC3",
		"componentType":5126,
		"count":12,
		"max":[1.2820299863815308,
		0.687890887260437,
		2.1363298892974855],
		"byteOffset":0,
		"min":[-1.2820299863815308,
		0.5160154104232788,
		0.24062520265579225]
	},
	{
		"bufferView":25,
		"type":"VEC2",
		"componentType":5126,
		"count":12,
		"max":[1.0,
		1.488281011581421],
		"byteOffset":12,
		"min":[0.0,
		1.25]
	},
	{
		"bufferView":26,
		"type":"SCALAR",
		"componentType":5123,
		"count":18,
		"max":[11],
		"byteOffset":0,
		"min":[0]
	},
	{
		"bufferView":27,
		"type":"VEC3",
		"componentType":5126,
		"count":12,
		"max":[3.013279914855957,
		0.511329174041748,
		-2.125],
		"byteOffset":0,
		"min":[1.4957001209259034,
		6.000000212225132e-7,
		-3.8890597820281984]
	},
	{
		"bufferView":27,
		"type":"VEC2",
		"componentType":5126,
		"count":12,
		"max":[2.0,
		2.0],
		"byteOffset":12,
		"min":[0.0,
		1.5]
	},
	{
		"bufferView":28,
		"type":"SCALAR",
		"componentType":5123,
		"count":54,
		"max":[26],
		"byteOffset":0,
		"min":[0]
	},
	{
		"bufferView":29,
		"type":"VEC3",
		"componentType":5126,
		"count":27,
		"max":[3.8324201107025148,
		0.687892496585846,
		-2.0066399574279787],
		"byteOffset":0,
		"min":[1.3671900033950806,
		0.5160166025161743,
		-4.639840126037598]
	},
	{
		"bufferView":29,
		"type":"VEC2",
		"componentType":5126,
		"count":27,
		"max":[1.0,
		1.5],
		"byteOffset":12,
		"min":[0.0,
		1.25]
	},
	{
		"bufferView":30,
		"type":"SCALAR",
		"componentType":5123,
		"count":54,
		"max":[14],
		"byteOffset":0,
		"min":[0]
	},
	{
		"bufferView":31,
		"type":"VEC3",
		"componentType":5126,
		"count":15,
		"max":[3.7429699897766115,
		0.6250013709068298,
		-2.226559638977051],
		"byteOffset":0,
		"min":[1.59375,
		0.6250007748603821,
		-4.507809638977051]
	},
	{
		"bufferView":31,
		"type":"VEC2",
		"componentType":5126,
		"count":15,
		"max":[1.0,
		1.2246088981628419],
		"byteOffset":12,
		"min":[0.0,
		1.046875]
	}],
	"bufferViews":[{
		"buffer":0,
		"byteOffset":0,
		"byteLength":12,
		"target":34963
	},
	{
		"buffer":0,
		"byteOffset":12,
		"byteLength":128,
		"target":34962,
		"byteStride":32
	},
	{
		"buffer":1,
		"byteOffset":0,
		"byteLength":12,
		"target":34963
	},
	{
		"buffer":1,
		"byteOffset":12,
		"byteLength":80,
		"target":34962,
		"byteStride":20
	},
	{
		"buffer":2,
		"byteOffset":0,
		"byteLength":12,
		"target":34963
	},
	{
		"buffer":2,
		"byteOffset":12,
		"byteLength":80,
		"target":34962,
		"byteStride":20
	},
	{
		"buffer":3,
		"byteOffset":0,
		"byteLength":12,
		"target":34963
	},
	{
		"buffer":3,
		"byteOffset":12,
		"byteLength":80,
		"target":34962,
		"byteStride":20
	},
	{
		"buffer":4,
		"byteOffset":0,
		"byteLength":372,
		"target":34963
	},
	{
		"buffer":4,
		"byteOffset":372,
		"byteLength":2480,
		"target":34962,
		"byteStride":20
	},
	{
		"buffer":5,
		"byteOffset":0,
		"byteLength":456,
		"target":34963
	},
	{
		"buffer":5,
		"byteOffset":456,
		"byteLength":2400,
		"target":34962,
		"byteStride":20
	},
	{
		"buffer":6,
		"byteOffset":0,
		"byteLength":96,
		"target":34963
	},
	{
		"buffer":6,
		"byteOffset":96,
		"byteLength":480,
		"target":34962,
		"byteStride":20
	},
	{
		"buffer":7,
		"byteOffset":0,
		"byteLength":96,
		"target":34963
	},
	{
		"buffer":7,
		"byteOffset":96,
		"byteLength":640,
		"target":34962,
		"byteStride":20
	},
	{
		"buffer":8,
		"byteOffset":0,
		"byteLength":288,
		"target":34963
	},
	{
		"buffer":8,
		"byteOffset":288,
		"byteLength":1600,
		"target":34962,
		"byteStride":20
	},
	{
		"buffer":9,
		"byteOffset":0,
		"byteLength":96,
		"target":34963
	},
	{
		"buffer":9,
		"byteOffset":96,
		"byteLength":400,
		"target":34962,
		"byteStride":20
	},
	{
		"buffer":10,
		"byteOffset":0,
		"byteLength":840,
		"target":34963
	},
	{
		"buffer":10,
		"byteOffset":840,
		"byteLength":5040,
		"target":34962,
		"byteStride":20
	},
	{
		"buffer":11,
		"byteOffset":0,
		"byteLength":60,
		"target":34963
	},
	{
		"buffer":11,
		"byteOffset":60,
		"byteLength":320,
		"target":34962,
		"byteStride":20
	},
	{
		"buffer":12,
		"byteOffset":0,
		"byteLength":48,
		"target":34963
	},
	{
		"buffer":12,
		"byteOffset":48,
		"byteLength":240,
		"target":34962,
		"byteStride":20
	},
	{
		"buffer":13,
		"byteOffset":0,
		"byteLength":36,
		"target":34963
	},
	{
		"buffer":13,
		"byteOffset":36,
		"byteLength":240,
		"target":34962,
		"byteStride":20
	},
	{
		"buffer":14,
		"byteOffset":0,
		"byteLength":108,
		"target":34963
	},
	{
		"buffer":14,
		"byteOffset":108,
		"byteLength":540,
		"target":34962,
		"byteStride":20
	},
	{
		"buffer":15,
		"byteOffset":0,
		"byteLength":108,
		"target":34963
	},
	{
		"buffer":15,
		"byteOffset":108,
		"byteLength":300,
		"target":34962,
		"byteStride":20
	}],
	"buffers":[{
		"uri":"data:application/octet-stream;base64,",
		"byteLength":140
	},
	{
		"uri":"data:application/octet-stream;base64,",
		"byteLength":92
	},
	{
		"uri":"data:application/octet-stream;base64,",
		"byteLength":92
	},
	{
		"uri":"data:application/octet-stream;base64,",
		"byteLength":92
	},
	{
		"uri":"data:application/octet-stream;base64,",
		"byteLength":2852
	},
	{
		"uri":"data:application/octet-stream;base64,",
		"byteLength":2856
	},
	{
		"uri":"data:application/octet-stream;base64,",
		"byteLength":576
	},
	{
		"uri":"data:application/octet-stream;base64,",
		"byteLength":736
	},
	{
		"uri":"data:application/octet-stream;base64,",
		"byteLength":1888
	},
	{
		"uri":"data:application/octet-stream;base64,",
		"byteLength":496
	},
	{
		"uri":"data:application/octet-stream;base64,",
		"byteLength":5880
	},
	{
		"uri":"data:application/octet-stream;base64,",
		"byteLength":380
	},
	{
		"uri":"data:application/octet-stream;base64,",
		"byteLength":288
	},
	{
		"uri":"data:application/octet-stream;base64,",
		"byteLength":276
	},
	{
		"uri":"data:application/octet-stream;base64,",
		"byteLength":648
	},
	{
		"uri":"data:application/octet-stream;base64,",
		"byteLength":408
	}],
	"materials":[{
		"pbrMetallicRoughness":{
			"baseColorFactor":[1.0,
			1.0,
			1.0,
			0.0],
			"metallicFactor":1.0,
			"roughnessFactor":1.0
		},
		"emissiveFactor":[0.0,
		0.0,
		0.0],
		"alphaMode":"BLEND",
		"doubleSided":true,
		"name":"nullTexture"
	},
	{
		"pbrMetallicRoughness":{
			"baseColorTexture":{
				"index":0
			},
			"baseColorFactor":[1.0,
			1.0,
			1.0,
			1.0],
			"metallicFactor":1.0,
			"roughnessFactor":1.0
		},
		"emissiveFactor":[0.0,
		0.0,
		0.0],
		"alphaMode":"OPAQUE",
		"doubleSided":true,
		"name":"_material9.001"
	},
	{
		"pbrMetallicRoughness":{
			"baseColorTexture":{
				"index":1
			},
			"baseColorFactor":[1.0,
			1.0,
			1.0,
			1.0],
			"metallicFactor":1.0,
			"roughnessFactor":1.0
		},
		"emissiveFactor":[0.0,
		0.0,
		0.0],
		"alphaMode":"OPAQUE",
		"doubleSided":true,
		"name":"_material1.001"
	},
	{
		"pbrMetallicRoughness":{
			"baseColorTexture":{
				"index":2
			},
			"baseColorFactor":[1.0,
			1.0,
			1.0,
			0.0],
			"metallicFactor":1.0,
			"roughnessFactor":1.0
		},
		"emissiveFactor":[0.0,
		0.0,
		0.0],
		"alphaMode":"BLEND",
		"doubleSided":true,
		"name":"_material3.001"
	},
	{
		"pbrMetallicRoughness":{
			"baseColorTexture":{
				"index":3
			},
			"baseColorFactor":[1.0,
			1.0,
			1.0,
			1.0],
			"metallicFactor":1.0,
			"roughnessFactor":1.0
		},
		"emissiveFactor":[0.0,
		0.0,
		0.0],
		"alphaMode":"OPAQUE",
		"doubleSided":true,
		"name":"_material7.001"
	},
	{
		"pbrMetallicRoughness":{
			"baseColorTexture":{
				"index":4
			},
			"baseColorFactor":[1.0,
			1.0,
			1.0,
			1.0],
			"metallicFactor":1.0,
			"roughnessFactor":1.0
		},
		"emissiveFactor":[0.0,
		0.0,
		0.0],
		"alphaMode":"OPAQUE",
		"doubleSided":true,
		"name":"_material2.001"
	},
	{
		"pbrMetallicRoughness":{
			"baseColorTexture":{
				"index":5
			},
			"baseColorFactor":[1.0,
			1.0,
			1.0,
			1.0],
			"metallicFactor":1.0,
			"roughnessFactor":1.0
		},
		"emissiveFactor":[0.0,
		0.0,
		0.0],
		"alphaMode":"OPAQUE",
		"doubleSided":true,
		"name":"_material5.001"
	},
	{
		"pbrMetallicRoughness":{
			"baseColorTexture":{
				"index":6
			},
			"baseColorFactor":[1.0,
			1.0,
			1.0,
			1.0],
			"metallicFactor":1.0,
			"roughnessFactor":1.0
		},
		"emissiveFactor":[0.0,
		0.0,
		0.0],
		"alphaMode":"OPAQUE",
		"doubleSided":true,
		"name":"_material6.001"
	},
	{
		"pbrMetallicRoughness":{
			"baseColorTexture":{
				"index":7
			},
			"baseColorFactor":[1.0,
			1.0,
			1.0,
			1.0],
			"metallicFactor":1.0,
			"roughnessFactor":1.0
		},
		"emissiveFactor":[0.0,
		0.0,
		0.0],
		"alphaMode":"OPAQUE",
		"doubleSided":true,
		"name":"_material0.001"
	},
	{
		"pbrMetallicRoughness":{
			"baseColorTexture":{
				"index":8
			},
			"baseColorFactor":[1.0,
			1.0,
			1.0,
			1.0],
			"metallicFactor":1.0,
			"roughnessFactor":1.0
		},
		"emissiveFactor":[0.0,
		0.0,
		0.0],
		"alphaMode":"OPAQUE",
		"doubleSided":true,
		"name":"_material4.001"
	},
	{
		"pbrMetallicRoughness":{
			"baseColorTexture":{
				"index":9
			},
			"baseColorFactor":[1.0,
			1.0,
			1.0,
			1.0],
			"metallicFactor":1.0,
			"roughnessFactor":1.0
		},
		"emissiveFactor":[0.0,
		0.0,
		0.0],
		"alphaMode":"OPAQUE",
		"doubleSided":true,
		"name":"_material8.001"
	}],
	"images":[{
		"uri":"data:image/png;base64,"
	},
	{
		"uri":"data:image/png;base64,"
	},
	{
		"uri":"data:image/png;base64,"
	},
	{
		"uri":"data:image/png;base64,"
	},
	{
		"uri":"data:image/png;base64,"
	},
	{
		"uri":"data:image/png;base64,"
	},
	{
		"uri":"data:image/png;base64,"
	},
	{
		"uri":"data:image/png;base64,"
	},
	{
		"uri":"data:image/png;base64,"
	},
	{
		"uri":"data:image/png;base64,"
	}],
	"textures":[{
		"sampler":0,
		"source":0
	},
	{
		"sampler":1,
		"source":1
	},
	{
		"sampler":2,
		"source":2
	},
	{
		"sampler":3,
		"source":3
	},
	{
		"sampler":4,
		"source":4
	},
	{
		"sampler":5,
		"source":5
	},
	{
		"sampler":6,
		"source":6
	},
	{
		"sampler":7,
		"source":7
	},
	{
		"sampler":8,
		"source":8
	},
	{
		"sampler":9,
		"source":9
	}],
	"samplers":[{
		"magFilter":9729,
		"minFilter":9729,
		"wrapS":10497,
		"wrapT":10497
	},
	{
		"magFilter":9729,
		"minFilter":9729,
		"wrapS":10497,
		"wrapT":10497
	},
	{
		"magFilter":9729,
		"minFilter":9729,
		"wrapS":10497,
		"wrapT":10497
	},
	{
		"magFilter":9729,
		"minFilter":9729,
		"wrapS":10497,
		"wrapT":10497
	},
	{
		"magFilter":9729,
		"minFilter":9729,
		"wrapS":10497,
		"wrapT":10497
	},
	{
		"magFilter":9729,
		"minFilter":9729,
		"wrapS":10497,
		"wrapT":10497
	},
	{
		"magFilter":9729,
		"minFilter":9729,
		"wrapS":10497,
		"wrapT":10497
	},
	{
		"magFilter":9729,
		"minFilter":9729,
		"wrapS":10497,
		"wrapT":10497
	},
	{
		"magFilter":9729,
		"minFilter":9729,
		"wrapS":10497,
		"wrapT":10497
	},
	{
		"magFilter":9729,
		"minFilter":9729,
		"wrapS":10497,
		"wrapT":10497
	}]
}