{
	"asset":{
		"version":"2.0",
		"generator":""
	},
	"scenes":[{
		"nodes":[0]
	}],
	"nodes":[{
		"name":"Casino",
		"children":[1,
		2,
		3,
		4,
		5,
		6,
		7,
		8,
		9,
		10]
	},
	{
		"name":"Casino-_material1.001",
		"mesh":0
	},
	{
		"name":"Casino-_material5.001",
		"mesh":1
	},
	{
		"name":"Casino-_material3.001",
		"mesh":2
	},
	{
		"name":"Casino-_material7.001",
		"mesh":3
	},
	{
		"name":"Casino-_material2.001",
		"mesh":4
	},
	{
		"name":"Casino-_material6.001",
		"mesh":5
	},
	{
		"name":"Casino-_material9.001",
		"mesh":6
	},
	{
		"name":"Casino-_material0.001",
		"mesh":7
	},
	{
		"name":"Casino-_material4.001",
		"mesh":8
	},
	{
		"name":"Casino-_material8.001",
		"mesh":9
	}],
	"meshes":[{
		"name":"Casino-_material1.001",
		"primitives":[{
			"attributes":{
				"POSITION":1,
				"NORMAL":2,
				"TEXCOORD_0":3
			},
			"indices":0,
			"material":0
		}]
	},
	{
		"name":"Casino-_material5.001",
		"primitives":[{
			"attributes":{
				"POSITION":5,
				"NORMAL":6,
				"TEXCOORD_0":7
			},
			"indices":4,
			"material":1
		}]
	},
	{
		"name":"Casino-_material3.001",
		"primitives":[{
			"attributes":{
				"POSITION":9,
				"NORMAL":10,
				"TEXCOORD_0":11
			},
			"indices":8,
			"material":2
		}]
	},
	{
		"name":"Casino-_material7.001",
		"primitives":[{
			"attributes":{
				"POSITION":13,
				"NORMAL":14,
				"TEXCOORD_0":15
			},
			"indices":12,
			"material":3
		}]
	},
	{
		"name":"Casino-_material2.001",
		"primitives":[{
			"attributes":{
				"POSITION":17,
				"NORMAL":18,
				"TEXCOORD_0":19
			},
			"indices":16,
			"material":4
		}]
	},
	{
		"name":"Casino-_material6.001",
		"primitives":[{
			"attributes":{
				"POSITION":21,
				"NORMAL":22,
				"TEXCOORD_0":23
			},
			"indices":20,
			"material":5
		}]
	},
	{
		"name":"Casino-_material9.001",
		"primitives":[{
			"attributes":{
				"POSITION":25,
				"NORMAL":26,
				"TEXCOORD_0":27
			},
			"indices":24,
			"material":6
		}]
	},
	{
		"name":"Casino-_material0.001",
		"primitives":[{
			"attributes":{
				"POSITION":29,
				"NORMAL":30,
				"TEXCOORD_0":31
			},
			"indices":28,
			"material":7
		}]
	},
	{
		"name":"Casino-_material4.001",
		"primitives":[{
			"attributes":{
				"POSITION":33,
				"NORMAL":34,
				"TEXCOORD_0":35
			},
			"indices":32,
			"material":8
		}]
	},
	{
		"name":"Casino-_material8.001",
		"primitives":[{
			"attributes":{
				"POSITION":37,
				"NORMAL":38,
				"TEXCOORD_0":39
			},
			"indices":36,
			"material":9
		}]
	}],
	"accessors":[{
		"bufferView":0,
		"type":"SCALAR",
		"componentType":5123,
		"count":45,
		"byteOffset":0,
		"min":[0],
		"max":[44]
	},
	{
		"bufferView":1,
		"type":"VEC3",
		"componentType":5126,
		"count":45,
		"byteOffset":0,
		"min":[-0.053668003529310229,
		-6.000000052353016e-9,
		-0.09596479684114456],
		"max":[0.04828910157084465,
		3.199999909497819e-8,
		0.01955469883978367]
	},
	{
		"bufferView":1,
		"type":"VEC3",
		"componentType":5126,
		"count":45,
		"byteOffset":12,
		"min":[0.0,
		-1.0,
		0.0],
		"max":[0.0,
		1.0,
		0.0]
	},
	{
		"bufferView":1,
		"type":"VEC2",
		"componentType":5126,
		"count":45,
		"byteOffset":24,
		"min":[-8.40429973602295,
		-7.404299736022949],
		"max":[9.40429973602295,
		10.404298782348633]
	},
	{
		"bufferView":2,
		"type":"SCALAR",
		"componentType":5123,
		"count":48,
		"byteOffset":0,
		"min":[0],
		"max":[47]
	},
	{
		"bufferView":3,
		"type":"VEC3",
		"componentType":5126,
		"count":48,
		"byteOffset":0,
		"min":[-0.023910200223326684,
		0.006152348127216101,
		-0.056449200958013538],
		"max":[-0.004589839838445187,
		0.011250019073486328,
		-0.023609396070241929]
	},
	{
		"bufferView":3,
		"type":"VEC3",
		"componentType":5126,
		"count":48,
		"byteOffset":12,
		"min":[0.17659924924373628,
		-0.17798802256584168,
		0.08612768352031708],
		"max":[0.8847249150276184,
		0.9805017113685608,
		0.43189048767089846]
	},
	{
		"bufferView":3,
		"type":"VEC2",
		"componentType":5126,
		"count":48,
		"byteOffset":24,
		"min":[0.0,
		1.0],
		"max":[1.0,
		2.0]
	},
	{
		"bufferView":4,
		"type":"SCALAR",
		"componentType":5123,
		"count":186,
		"byteOffset":0,
		"min":[0],
		"max":[185]
	},
	{
		"bufferView":5,
		"type":"VEC3",
		"componentType":5126,
		"count":186,
		"byteOffset":0,
		"min":[0.008117188699543476,
		0.004023460205644369,
		-0.07566019147634506],
		"max":[0.04403519630432129,
		0.014601622708141804,
		-0.05335550010204315]
	},
	{
		"bufferView":5,
		"type":"VEC3",
		"componentType":5126,
		"count":186,
		"byteOffset":12,
		"min":[-0.6579152345657349,
		0.5888802409172058,
		0.2981715202331543],
		"max":[0.4008997678756714,
		0.8631151914596558,
		0.7425633668899536]
	},
	{
		"bufferView":5,
		"type":"VEC2",
		"componentType":5126,
		"count":186,
		"byteOffset":24,
		"min":[0.0,
		1.0],
		"max":[1.0,
		2.0]
	},
	{
		"bufferView":6,
		"type":"SCALAR",
		"componentType":5123,
		"count":228,
		"byteOffset":0,
		"min":[0],
		"max":[227]
	},
	{
		"bufferView":7,
		"type":"VEC3",
		"componentType":5126,
		"count":228,
		"byteOffset":0,
		"min":[-0.018160199746489526,
		7.999999773744549e-9,
		-0.05288279801607132],
		"max":[0.00007031200220808387,
		0.008542986586689949,
		-0.021867195144295694]
	},
	{
		"bufferView":7,
		"type":"VEC3",
		"componentType":5126,
		"count":228,
		"byteOffset":12,
		"min":[-0.8990229964256287,
		-0.10081714391708374,
		-0.4386933147907257],
		"max":[0.9031631946563721,
		0.99985271692276,
		0.9936230182647705]
	},
	{
		"bufferView":7,
		"type":"VEC2",
		"componentType":5126,
		"count":228,
		"byteOffset":24,
		"min":[-0.0019529999699443579,
		1.0],
		"max":[1.0,
		2.0]
	},
	{
		"bufferView":8,
		"type":"SCALAR",
		"componentType":5123,
		"count":48,
		"byteOffset":0,
		"min":[0],
		"max":[47]
	},
	{
		"bufferView":9,
		"type":"VEC3",
		"componentType":5126,
		"count":48,
		"byteOffset":0,
		"min":[0.007683590054512024,
		1.799999971296984e-8,
		-0.07431639730930329],
		"max":[0.042757797986269,
		0.007179713808000088,
		-0.05514449626207352]
	},
	{
		"bufferView":9,
		"type":"VEC3",
		"componentType":5126,
		"count":48,
		"byteOffset":12,
		"min":[-0.3370015025138855,
		0.0,
		-0.2111324965953827],
		"max":[0.2187548279762268,
		1.0,
		0.9415735006332398]
	},
	{
		"bufferView":9,
		"type":"VEC2",
		"componentType":5126,
		"count":48,
		"byteOffset":24,
		"min":[-7.910160064697266,
		1.0214838981628419],
		"max":[3.1601600646972658,
		1.8671879768371583]
	},
	{
		"bufferView":10,
		"type":"SCALAR",
		"componentType":5123,
		"count":144,
		"byteOffset":0,
		"min":[0],
		"max":[143]
	},
	{
		"bufferView":11,
		"type":"VEC3",
		"componentType":5126,
		"count":144,
		"byteOffset":0,
		"min":[-0.027300797402858735,
		7.999999773744549e-9,
		-0.0581015981733799],
		"max":[-0.004589839838445187,
		0.011250019073486328,
		-0.023609396070241929]
	},
	{
		"bufferView":11,
		"type":"VEC3",
		"componentType":5126,
		"count":144,
		"byteOffset":12,
		"min":[-0.442607581615448,
		-0.0026875699404627086,
		0.0],
		"max":[0.8988760113716126,
		1.0,
		0.9001948833465576]
	},
	{
		"bufferView":11,
		"type":"VEC2",
		"componentType":5126,
		"count":144,
		"byteOffset":24,
		"min":[0.011718999594449997,
		1.0146479606628419],
		"max":[1.0,
		2.0]
	},
	{
		"bufferView":12,
		"type":"SCALAR",
		"componentType":5123,
		"count":24,
		"byteOffset":0,
		"min":[0],
		"max":[23]
	},
	{
		"bufferView":13,
		"type":"VEC3",
		"componentType":5126,
		"count":24,
		"byteOffset":0,
		"min":[-0.031214799731969835,
		1.2000000104706033e-8,
		-0.09596479684114456],
		"max":[0.0568866990506649,
		0.04492192715406418,
		-0.039617184549570087]
	},
	{
		"bufferView":13,
		"type":"VEC3",
		"componentType":5126,
		"count":24,
		"byteOffset":12,
		"min":[-0.18523190915584565,
		0.0,
		0.46650874614715578],
		"max":[0.8845165967941284,
		0.0,
		0.9826948046684265]
	},
	{
		"bufferView":13,
		"type":"VEC2",
		"componentType":5126,
		"count":24,
		"byteOffset":24,
		"min":[-0.5712890028953552,
		0.32226598262786868],
		"max":[2.257810115814209,
		2.6240200996398927]
	},
	{
		"bufferView":14,
		"type":"SCALAR",
		"componentType":5123,
		"count":48,
		"byteOffset":0,
		"min":[0],
		"max":[47]
	},
	{
		"bufferView":15,
		"type":"VEC3",
		"componentType":5126,
		"count":48,
		"byteOffset":0,
		"min":[-0.0277577992528677,
		0.013921912759542466,
		-0.05098049342632294],
		"max":[-0.017679698765277864,
		0.0218203142285347,
		-0.03689059242606163]
	},
	{
		"bufferView":15,
		"type":"VEC3",
		"componentType":5126,
		"count":48,
		"byteOffset":12,
		"min":[-0.42550361156463625,
		-1.0,
		-0.3053835928440094],
		"max":[0.8781951665878296,
		1.0,
		0.7799888253211975]
	},
	{
		"bufferView":15,
		"type":"VEC2",
		"componentType":5126,
		"count":48,
		"byteOffset":24,
		"min":[0.03125,
		1.066406011581421],
		"max":[0.9707030057907105,
		1.919921875]
	},
	{
		"bufferView":16,
		"type":"SCALAR",
		"componentType":5123,
		"count":420,
		"byteOffset":0,
		"min":[0],
		"max":[419]
	},
	{
		"bufferView":17,
		"type":"VEC3",
		"componentType":5126,
		"count":420,
		"byteOffset":0,
		"min":[-0.015710899606347085,
		0.018031207844614984,
		-0.07160940021276474],
		"max":[0.029265599325299264,
		0.02958201989531517,
		-0.026820292696356775]
	},
	{
		"bufferView":17,
		"type":"VEC3",
		"componentType":5126,
		"count":420,
		"byteOffset":12,
		"min":[-0.9855409264564514,
		-0.10809742659330368,
		-0.9897043704986572],
		"max":[0.9891804456710815,
		0.9118378758430481,
		0.9927624464035034]
	},
	{
		"bufferView":17,
		"type":"VEC2",
		"componentType":5126,
		"count":420,
		"byteOffset":24,
		"min":[-9.921879768371582,
		-8.0],
		"max":[10.019499778747559,
		4.449219703674316]
	},
	{
		"bufferView":18,
		"type":"SCALAR",
		"componentType":5123,
		"count":156,
		"byteOffset":0,
		"min":[0],
		"max":[155]
	},
	{
		"bufferView":19,
		"type":"VEC3",
		"componentType":5126,
		"count":156,
		"byteOffset":0,
		"min":[-0.012820299714803696,
		6.000000052353016e-9,
		-0.04639839753508568],
		"max":[0.03832419961690903,
		0.006878925021737814,
		0.02136329934000969]
	},
	{
		"bufferView":19,
		"type":"VEC3",
		"componentType":5126,
		"count":156,
		"byteOffset":12,
		"min":[-0.9981221556663513,
		0.0,
		-0.4273054003715515],
		"max":[0.9165750741958618,
		1.0,
		0.9455376863479614]
	},
	{
		"bufferView":19,
		"type":"VEC2",
		"componentType":5126,
		"count":156,
		"byteOffset":24,
		"min":[0.0,
		1.046875],
		"max":[2.0,
		2.0]
	}],
	"bufferViews":[{
		"buffer":0,
		"byteOffset":0,
		"byteLength":90,
		"target":34963
	},
	{
		"buffer":0,
		"byteOffset":92,
		"byteLength":1440,
		"target":34962,
		"byteStride":32
	},
	{
		"buffer":1,
		"byteOffset":0,
		"byteLength":96,
		"target":34963
	},
	{
		"buffer":1,
		"byteOffset":96,
		"byteLength":1536,
		"target":34962,
		"byteStride":32
	},
	{
		"buffer":2,
		"byteOffset":0,
		"byteLength":372,
		"target":34963
	},
	{
		"buffer":2,
		"byteOffset":372,
		"byteLength":5952,
		"target":34962,
		"byteStride":32
	},
	{
		"buffer":3,
		"byteOffset":0,
		"byteLength":456,
		"target":34963
	},
	{
		"buffer":3,
		"byteOffset":456,
		"byteLength":7296,
		"target":34962,
		"byteStride":32
	},
	{
		"buffer":4,
		"byteOffset":0,
		"byteLength":96,
		"target":34963
	},
	{
		"buffer":4,
		"byteOffset":96,
		"byteLength":1536,
		"target":34962,
		"byteStride":32
	},
	{
		"buffer":5,
		"byteOffset":0,
		"byteLength":288,
		"target":34963
	},
	{
		"buffer":5,
		"byteOffset":288,
		"byteLength":4608,
		"target":34962,
		"byteStride":32
	},
	{
		"buffer":6,
		"byteOffset":0,
		"byteLength":48,
		"target":34963
	},
	{
		"buffer":6,
		"byteOffset":48,
		"byteLength":768,
		"target":34962,
		"byteStride":32
	},
	{
		"buffer":7,
		"byteOffset":0,
		"byteLength":96,
		"target":34963
	},
	{
		"buffer":7,
		"byteOffset":96,
		"byteLength":1536,
		"target":34962,
		"byteStride":32
	},
	{
		"buffer":8,
		"byteOffset":0,
		"byteLength":840,
		"target":34963
	},
	{
		"buffer":8,
		"byteOffset":840,
		"byteLength":13440,
		"target":34962,
		"byteStride":32
	},
	{
		"buffer":9,
		"byteOffset":0,
		"byteLength":312,
		"target":34963
	},
	{
		"buffer":9,
		"byteOffset":312,
		"byteLength":4992,
		"target":34962,
		"byteStride":32
	}],
	"buffers":[{
		"uri":"data:application/octet-stream;base64,",
		"byteLength":1532
	},
	{
		"uri":"data:application/octet-stream;base64,",
		"byteLength":1632
	},
	{
		"uri":"data:application/octet-stream;base64,",
		"byteLength":6324
	},
	{
		"uri":"data:application/octet-stream;base64,",
		"byteLength":7752
	},
	{
		"uri":"data:application/octet-stream;base64,",
		"byteLength":1632
	},
	{
		"uri":"data:application/octet-stream;base64,",
		"byteLength":4896
	},
	{
		"uri":"data:application/octet-stream;base64,",
		"byteLength":816
	},
	{
		"uri":"data:application/octet-stream;base64,",
		"byteLength":1632
	},
	{
		"uri":"data:application/octet-stream;base64,",
		"byteLength":14280
	},
	{
		"uri":"data:application/octet-stream;base64,",
		"byteLength":5304
	}],
	"materials":[{
		"pbrMetallicRoughness":{
			"baseColorTexture":{
				"index":0
			},
			"baseColorFactor":[1.0,
			1.0,
			1.0,
			1.0],
			"metallicFactor":1.0,
			"roughnessFactor":1.0
		},
		"alphaMode":"OPAQUE",
		"emissiveFactor":[0.0,
		0.0,
		0.0],
		"doubleSided":false,
		"name":"_material1.001"
	},
	{
		"pbrMetallicRoughness":{
			"baseColorTexture":{
				"index":1
			},
			"baseColorFactor":[1.0,
			1.0,
			1.0,
			1.0],
			"metallicFactor":1.0,
			"roughnessFactor":1.0
		},
		"alphaMode":"OPAQUE",
		"emissiveFactor":[0.0,
		0.0,
		0.0],
		"doubleSided":false,
		"name":"_material5.001"
	},
	{
		"pbrMetallicRoughness":{
			"baseColorTexture":{
				"index":2
			},
			"baseColorFactor":[1.0,
			1.0,
			1.0,
			0.0],
			"metallicFactor":1.0,
			"roughnessFactor":1.0
		},
		"alphaMode":"BLEND",
		"emissiveFactor":[0.0,
		0.0,
		0.0],
		"doubleSided":false,
		"name":"_material3.001"
	},
	{
		"pbrMetallicRoughness":{
			"baseColorTexture":{
				"index":3
			},
			"baseColorFactor":[1.0,
			1.0,
			1.0,
			1.0],
			"metallicFactor":1.0,
			"roughnessFactor":1.0
		},
		"alphaMode":"OPAQUE",
		"emissiveFactor":[0.0,
		0.0,
		0.0],
		"doubleSided":false,
		"name":"_material7.001"
	},
	{
		"pbrMetallicRoughness":{
			"baseColorTexture":{
				"index":4
			},
			"baseColorFactor":[1.0,
			1.0,
			1.0,
			1.0],
			"metallicFactor":1.0,
			"roughnessFactor":1.0
		},
		"alphaMode":"OPAQUE",
		"emissiveFactor":[0.0,
		0.0,
		0.0],
		"doubleSided":false,
		"name":"_material2.001"
	},
	{
		"pbrMetallicRoughness":{
			"baseColorTexture":{
				"index":5
			},
			"baseColorFactor":[1.0,
			1.0,
			1.0,
			1.0],
			"metallicFactor":1.0,
			"roughnessFactor":1.0
		},
		"alphaMode":"OPAQUE",
		"emissiveFactor":[0.0,
		0.0,
		0.0],
		"doubleSided":false,
		"name":"_material6.001"
	},
	{
		"pbrMetallicRoughness":{
			"baseColorTexture":{
				"index":6
			},
			"baseColorFactor":[1.0,
			1.0,
			1.0,
			1.0],
			"metallicFactor":1.0,
			"roughnessFactor":1.0
		},
		"alphaMode":"OPAQUE",
		"emissiveFactor":[0.0,
		0.0,
		0.0],
		"doubleSided":false,
		"name":"_material9.001"
	},
	{
		"pbrMetallicRoughness":{
			"baseColorTexture":{
				"index":7
			},
			"baseColorFactor":[1.0,
			1.0,
			1.0,
			0.0],
			"metallicFactor":1.0,
			"roughnessFactor":1.0
		},
		"alphaMode":"BLEND",
		"emissiveFactor":[0.0,
		0.0,
		0.0],
		"doubleSided":false,
		"name":"_material0.001"
	},
	{
		"pbrMetallicRoughness":{
			"baseColorTexture":{
				"index":8
			},
			"baseColorFactor":[1.0,
			1.0,
			1.0,
			1.0],
			"metallicFactor":1.0,
			"roughnessFactor":1.0
		},
		"alphaMode":"OPAQUE",
		"emissiveFactor":[0.0,
		0.0,
		0.0],
		"doubleSided":false,
		"name":"_material4.001"
	},
	{
		"pbrMetallicRoughness":{
			"baseColorTexture":{
				"index":9
			},
			"baseColorFactor":[1.0,
			1.0,
			1.0,
			1.0],
			"metallicFactor":1.0,
			"roughnessFactor":1.0
		},
		"alphaMode":"OPAQUE",
		"emissiveFactor":[0.0,
		0.0,
		0.0],
		"doubleSided":false,
		"name":"_material8.001"
	}],
	"images":[{
		"uri":"data:image/png;base64,"
	},
	{
		"uri":"data:image/png;base64,"
	},
	{
		"uri":"data:image/png;base64,"
	},
	{
		"uri":"data:image/png;base64,"
	},
	{
		"uri":"data:image/png;base64,"
	},
	{
		"uri":"data:image/png;base64,"
	},
	{
		"uri":"data:image/png;base64,"
	},
	{
		"uri":"data:image/png;base64,"
	},
	{
		"uri":"data:image/png;base64,"
	},
	{
		"uri":"data:image/png;base64,"
	}],
	"textures":[{
		"sampler":0,
		"source":0
	},
	{
		"sampler":1,
		"source":1
	},
	{
		"sampler":2,
		"source":2
	},
	{
		"sampler":3,
		"source":3
	},
	{
		"sampler":4,
		"source":4
	},
	{
		"sampler":5,
		"source":5
	},
	{
		"sampler":6,
		"source":6
	},
	{
		"sampler":7,
		"source":7
	},
	{
		"sampler":8,
		"source":8
	},
	{
		"sampler":9,
		"source":9
	}],
	"samplers":[{
		"magFilter":9729,
		"minFilter":9729,
		"wrapS":10497,
		"wrapT":10497
	},
	{
		"magFilter":9729,
		"minFilter":9729,
		"wrapS":10497,
		"wrapT":10497
	},
	{
		"magFilter":9729,
		"minFilter":9729,
		"wrapS":10497,
		"wrapT":10497
	},
	{
		"magFilter":9729,
		"minFilter":9729,
		"wrapS":10497,
		"wrapT":10497
	},
	{
		"magFilter":9729,
		"minFilter":9729,
		"wrapS":10497,
		"wrapT":10497
	},
	{
		"magFilter":9729,
		"minFilter":9729,
		"wrapS":10497,
		"wrapT":10497
	},
	{
		"magFilter":9729,
		"minFilter":9729,
		"wrapS":10497,
		"wrapT":10497
	},
	{
		"magFilter":9729,
		"minFilter":9729,
		"wrapS":10497,
		"wrapT":10497
	},
	{
		"magFilter":9729,
		"minFilter":9729,
		"wrapS":10497,
		"wrapT":10497
	},
	{
		"magFilter":9729,
		"minFilter":9729,
		"wrapS":10497,
		"wrapT":10497
	}]
}