{
	"asset":{
		"version":"2.0",
		"generator":"Sketchfab-14.88.0",
		"copyright":""
	},
	"scenes":[{
		"nodes":[0]
	}],
	"nodes":[{
		"name":"Polygon Reduction.1",
		"mesh":0
	}],
	"meshes":[{
		"name":"Polygon Reduction.1",
		"primitives":[{
			"attributes":{
				"POSITION":1,
				"NORMAL":2,
				"TEXCOORD_0":3
			},
			"indices":0,
			"material":0
		}]
	}],
	"textures":[{
		"sampler":0,
		"source":0
	}],
	"accessors":[{
		"bufferView":0,
		"type":"SCALAR",
		"min":[0],
		"componentType":5123,
		"count":19650,
		"byteOffset":0,
		"max":[4210]
	},
	{
		"bufferView":1,
		"type":"VEC3",
		"min":[-0.6734225153923035,
		0.051389846950769427,
		0.0028375335969030859],
		"componentType":5126,
		"count":4211,
		"byteOffset":0,
		"max":[0.6948649287223816,
		0.6163124442100525,
		0.003837533527985215]
	},
	{
		"bufferView":1,
		"type":"VEC3",
		"min":[-0.9823366403579712,
		-0.9823166131973267,
		-0.999649703502655],
		"componentType":5126,
		"count":4211,
		"byteOffset":12,
		"max":[0.9823366403579712,
		0.9823166131973267,
		1.0]
	},
	{
		"bufferView":1,
		"type":"VEC2",
		"min":[0.015836715698242189,
		0.017189979553222657],
		"componentType":5126,
		"count":4211,
		"byteOffset":24,
		"max":[0.9835052490234375,
		0.987640380859375]
	}],
	"bufferViews":[{
		"buffer":0,
		"byteOffset":0,
		"byteLength":39300,
		"target":34963
	},
	{
		"buffer":0,
		"byteOffset":39300,
		"byteLength":134752,
		"target":34962,
		"byteStride":32
	}],
	"buffers":[{
		"uri":"data:application/octet-stream;base64,",
		"byteLength":174052
	}],
	"images":[{
		"uri":"data:image/png;base64,"
	}],
	"samplers":[{
		"magFilter":9729,
		"minFilter":9729,
		"wrapS":10497,
		"wrapT":10497
	}],
	"materials":[{
		"pbrMetallicRoughness":{
			"baseColorTexture":{
				"index":0
			},
			"baseColorFactor":[1.0,
			1.0,
			1.0,
			1.0],
			"metallicFactor":1.0,
			"roughnessFactor":1.0
		},
		"emissiveFactor":[0.0,
		0.0,
		0.0],
		"alphaMode":"OPAQUE",
		"name":"Mat",
		"doubleSided":true
	}]
}