{
	"asset":{
		"version":"2.0",
		"generator":"Maxon Cinema 4D 2024.1.0 (#200000219)"
	},
	"scenes":[{
		"nodes":[0]
	}],
	"nodes":[{
		"name":"Cube",
		"mesh":0
	}],
	"meshes":[{
		"name":"Cube",
		"primitives":[{
			"attributes":{
				"POSITION":1,
				"NORMAL":2,
				"TEXCOORD_0":3
			},
			"indices":0
		}]
	}],
	"accessors":[{
		"bufferView":0,
		"count":1284,
		"type":"SCALAR",
		"componentType":5123,
		"byteOffset":0,
		"min":[0],
		"max":[323]
	},
	{
		"bufferView":1,
		"count":324,
		"type":"VEC3",
		"componentType":5126,
		"byteOffset":0,
		"min":[-0.00317499996162951,
		-0.00001249999968422344,
		-0.0044450000859797],
		"max":[0.00317499996162951,
		0.00001249999968422344,
		0.0044450000859797]
	},
	{
		"bufferView":1,
		"count":324,
		"type":"VEC3",
		"componentType":5126,
		"byteOffset":12,
		"min":[-0.9993664026260376,
		-1.0,
		-0.9976230263710022],
		"max":[0.9993664026260376,
		1.0,
		0.9946358799934387]
	},
	{
		"bufferView":1,
		"count":324,
		"type":"VEC2",
		"componentType":5126,
		"byteOffset":24,
		"min":[-0.08399999886751175,
		-21.33599853515625],
		"max":[1.0839999914169312,
		22.33599853515625]
	}],
	"bufferViews":[{
		"buffer":0,
		"byteOffset":0,
		"byteLength":2568,
		"target":34963
	},
	{
		"buffer":0,
		"byteOffset":2568,
		"byteLength":10368,
		"target":34962,
		"byteStride":32
	}],
	"buffers":[{
		"uri":"data:application/octet-stream;base64,",
		"byteLength":12936
	}]
}